<svg width="432.071pt" height="445.383pt" viewBox="0 0 432.071 445.383" xmlns="http://www.w3.org/2000/svg"><g stroke="#fff" stroke-width="12.465" stroke-linecap="round" stroke-linejoin="round" fill="none"><path d="M323.205 324.227c2.833-23.6 1.984-27.062 19.563-23.24l4.463.393c13.518.615 31.2-2.174 41.588-7 22.362-10.376 35.622-27.7 13.572-23.148-50.297 10.376-53.755-6.655-53.755-6.655 53.11-78.803 75.313-178.836 56.15-203.322-52.27-66.79-142.75-35.206-144.263-34.386l-.482.088c-9.938-2.062-21.06-3.294-33.554-3.496-22.76-.374-40.032 5.967-53.133 15.904 0 0-161.408-66.498-153.9 83.628 1.598 31.936 45.778 241.655 98.47 178.31 19.26-23.163 37.872-42.748 37.872-42.748 9.242 6.14 20.307 9.272 31.912 8.147l.897-.765c-.28 2.876-.157 5.69.36 9.02-13.573 15.166-9.585 17.83-36.724 23.415-27.457 5.66-11.326 15.734-.797 18.367 12.768 3.193 42.305 7.716 62.268-20.224l-.794 3.188c5.325 4.26 4.965 30.62 5.72 49.452.756 18.834 2.017 36.41 5.856 46.77 3.84 10.36 8.37 37.05 44.036 29.407 29.81-6.388 52.6-15.582 54.677-101.107" fill="#000" stroke="#000" stroke-width="37.395" stroke-linecap="butt" stroke-linejoin="miter"/><path d="M402.395 271.23c-50.302 10.376-53.76-6.655-53.76-6.655 53.11-78.808 75.313-178.843 56.153-203.326-52.27-66.786-142.752-35.2-144.262-34.38l-.486.086c-9.938-2.063-21.06-3.292-33.56-3.496-22.76-.373-40.026 5.967-53.127 15.902 0 0-161.41-66.495-153.904 83.63 1.596 31.938 45.775 241.657 98.47 178.312 19.26-23.163 37.87-42.748 37.87-42.748 9.242 6.14 20.307 9.272 31.907 8.147l.9-.765c-.28 2.876-.15 5.69.362 9.02-13.576 15.166-9.587 17.83-36.724 23.415-27.46 5.66-11.328 15.734-.796 18.367 12.768 3.193 42.307 7.716 62.266-20.224l-.796 3.188c5.32 4.26 9.054 27.71 8.428 48.97-.626 21.258-1.044 35.853 3.147 47.253 4.19 11.4 8.368 37.05 44.042 29.406 29.81-6.388 45.256-22.942 47.405-50.555 1.525-19.63 4.976-16.73 5.194-34.28l2.768-8.31c3.192-26.61.507-35.195 18.872-31.202l4.463.392c13.516.615 31.207-2.174 41.59-7 22.358-10.376 35.618-27.7 13.573-23.148z" fill="#336791" stroke="none"/><path d="M215.866 286.484c-1.385 49.516.348 99.377 5.193 111.495 4.847 12.117 15.222 35.687 50.9 28.044 29.805-6.39 40.65-18.756 45.356-46.05 3.466-20.083 10.148-75.855 11.005-87.282M173.104 38.256S11.584-27.76 19.092 122.366c1.597 31.937 45.78 241.663 98.473 178.315 19.256-23.165 36.67-41.334 36.67-41.334M260.35 26.207c-5.592 1.753 89.847-34.89 144.086 34.417 19.16 24.484-3.043 124.52-56.153 203.33M348.282 263.953s3.46 17.036 53.764 6.653c22.04-4.552 8.776 12.774-13.577 23.155-18.346 8.515-59.475 10.697-60.147-1.068-1.73-30.355 21.647-21.133 19.96-28.74-1.525-6.85-11.98-13.572-18.894-30.337-6.038-14.633-82.797-126.85 21.286-110.183 3.813-.79-27.146-99.002-124.553-100.6-97.385-1.596-94.19 119.763-94.19 119.763"/><path d="M188.604 274.334c-13.577 15.166-9.584 17.83-36.723 23.417-27.458 5.66-11.325 15.734-.796 18.366 12.768 3.195 42.307 7.718 62.266-20.23 6.078-8.508-.036-22.085-8.385-25.546-4.034-1.67-9.428-3.765-16.36 3.994zM187.715 274.07c-1.368-8.918 2.93-19.53 7.536-31.943 6.923-18.626 22.894-37.255 10.118-96.34-9.523-44.028-73.396-9.162-73.436-3.192-.04 5.968 2.89 30.26-1.067 58.548-5.162 36.913 23.488 68.132 56.48 64.938"/><path d="M172.517 141.7c-.288 2.04 3.733 7.48 8.976 8.207 5.234.73 9.714-3.522 9.998-5.56.285-2.038-3.73-4.284-8.976-5.014-5.237-.73-9.72.333-9.996 2.367zM331.94 137.543c.285 2.04-3.73 7.48-8.975 8.207-5.238.73-9.718-3.522-10.005-5.56-.277-2.038 3.74-4.284 8.98-5.014 5.238-.73 9.717.333 10 2.368z" fill="#fff"/><path d="M350.676 123.432c.863 15.994-3.445 26.888-3.988 43.914-.804 24.748 11.8 53.074-7.19 81.435M0 60.232"/></g></svg>