<?xml version="1.0" standalone="no"?>
<!DOCTYPE svg PUBLIC "-//W3C//DTD SVG 1.1//EN" "http://www.w3.org/Graphics/SVG/1.1/DTD/svg11.dtd" >
<svg xmlns="http://www.w3.org/2000/svg" xmlns:xlink="http://www.w3.org/1999/xlink" version="1.1">
<metadata></metadata>
<defs>
<font id="matrixregular" horiz-adv-x="1024" >
<font-face units-per-em="2048" ascent="1638" descent="-410" />
<missing-glyph horiz-adv-x="500" />
<glyph horiz-adv-x="0" />
<glyph horiz-adv-x="682" />
<glyph unicode=" " />
<glyph unicode="@" horiz-adv-x="9687" d="M68 1249q0 -33 38.5 -37t85 -6t85 -12t38.5 -55q-6 0 -22.5 2t-34.5 3t-34.5 2t-22.5 1q-4 0 -12.5 -8.5t-8.5 -12.5q8 -29 27.5 -37t42 -9t45.5 -1q25 0 45 -11t32.5 -40t12.5 -86v-799q0 -31 -23.5 -52t-54.5 -35.5t-61.5 -24t-44.5 -11.5q47 -23 101 -23.5t104 -0.5 q16 0 46.5 2t34.5 2l21 20l41 830l430 -645l76 -76l518 813h20v-696q0 -6 -15 -21.5t-25.5 -19.5t-33 -10.5t-49 -13.5t-50 -12t-31.5 -5l20 -21q2 0 14.5 -1t26.5 -1q16 0 31.5 -1t25.5 -1q12 0 36 1t46 1q25 0 43.5 1t22.5 1q16 2 43.5 9.5t27.5 11.5v799h1031 q0 -4 3 -10.5t1 -10.5l-41 -61l-144 -267l-43.5 -72.5t-67.5 -111.5t-69 -111.5t-45 -72.5q-29 -29 -65.5 -43.5t-77.5 -18.5v-20h389l41 20q-49 10 -88 33t-39 76q0 14 5 45t16.5 59.5t26.5 51t38 22.5h491q23 0 42.5 -25.5t33.5 -59.5t22.5 -68.5t8.5 -53.5 q0 -25 -11.5 -39t-30 -22t-41 -11.5t-44.5 -7.5l82 -30h1311q-23 -27 -58 -37.5t-65 -14.5v-20h317v133h359v31q-78 8 -118 28.5t-57.5 54t-19.5 84t-2 119.5h1067v-368q0 -8 26.5 -13.5t59.5 -7.5t59 -2h33q10 0 32.5 1t24.5 1l21 21q-12 8 -40 14t-55.5 14.5t-48 19.5 t-20.5 34v342q18 0 31.5 3t23.5 3t21.5 -4t25.5 -17l451 -409q4 -4 20.5 -11.5t20.5 -9.5q10 -2 34.5 -6t50.5 -7t48.5 -5t30.5 -2h45q43 0 98 -1t111 -1h90h299q152 0 299 22q0 2 1 5.5t1 5.5q0 27 -28.5 33t-64.5 15t-64.5 34.5t-28.5 91.5v737q0 35 23.5 55.5t56 32.5 t67.5 19.5t57 15.5h35q27 0 56.5 1t56.5 1h37q37 0 87 2t101 -3t99.5 -18.5t80.5 -44.5l328 -307v-31h-82q6 -14 25.5 -38.5t42 -50t40 -47t17.5 -27.5q0 -2 -1 -7l-1 -4l-389 -389q-8 -8 -39 -23.5t-67.5 -31.5t-70.5 -29.5t-48 -17.5v-21h512v21q-16 2 -41 4t-48.5 8 t-40 19.5t-16.5 38.5q0 33 8.5 49t34.5 45q29 31 73 76t87 87t73.5 72.5t32.5 30.5h21l348 -328q2 -2 9 -17t12 -24l1 -4t1 -8q0 -2 -1 -5l-1 -3q-10 -10 -32 -17.5t-45.5 -12.5t-43 -8t-23.5 -3l21 -21h614l21 21q-6 2 -33 12t-58.5 23.5t-59.5 27t-34 19.5l-532 512 q43 23 43 63q0 4 -1 12l-1 7l-287 286q-2 4 -10 18.5t-10 22.5l-2 4q-1 5 -1 9q0 18 19.5 24t45.5 10.5t49.5 10.5t31.5 24h-1393l-286 -20q8 -25 37.5 -31t62.5 -12t58.5 -21.5t25.5 -58.5v-778q0 -45 -32 -66.5t-76 -30t-89 -8.5h-69q-57 0 -117 4t-109 39 q-25 20 -86 72.5t-129.5 112t-129 111.5t-85.5 73q-4 4 -12 11t-8 9l-1 4q-1 5 -1 7t1 5t1 5l123 41q10 4 25.5 11t15.5 9v430l-12 4q-11 3 -27.5 6t-34 6t-29.5 5q-10 2 -37.5 5t-60.5 6t-62.5 6t-44.5 3h-30h-31q-25 -2 -60.5 -5t-70.5 -6t-60 -6l-24 -3v-553h-1075v553 h327q39 0 59.5 -19.5t35 -45t29 -53.5t40.5 -46q12 2 16.5 11.5t6.5 20.5t1 21.5t-1 16.5q0 10 -1 35.5t-3 52t-7.5 47t-11.5 20.5h-717l-20 -30h-582q0 -12 1 -43t2 -65t3.5 -64.5t2.5 -42.5q0 -4 8 -20.5t12 -20.5l4 -1q4 -1 6 -1q12 0 20.5 14t14.5 32.5t9 36t7 21.5 q20 35 55.5 52.5t76 24.5t81.5 7h74h33q20 0 39.5 -1t34.5 -1h16q14 -2 37.5 -9t23.5 -12v-880h-921q-70 0 -124 42t-96 102.5t-74 127t-54 117.5q8 2 31.5 9t29.5 11t14.5 11.5t6.5 9.5l-205 389l-21 20q-4 0 -26.5 2.5t-32.5 2.5h-29q-16 0 -34.5 -1t-35 -6.5t-26.5 -17.5 h-1208q-4 37 -6 61.5t-11.5 38t-28 19.5t-51.5 6q-23 0 -37 -1t-24 -7t-21.5 -18.5t-25.5 -37.5l-430 -665l-451 686q-2 4 -9 11t-11 9q-8 6 -26.5 25.5t-39 41t-37 39t-20.5 17.5h-440zM2638 573l184 328l3 1q3 1 5 1q4 0 8 -1l5 -1q6 -4 21 -20.5t20 -20.5 q18 -31 46.5 -80t54.5 -94t44 -79l18 -34l-20 -20h-369zM3334 1577l21 -21v-153h180q119 0 270.5 1t327.5 1t357 1t358.5 2t329 2t269 2t181.5 1q31 0 97.5 2t149.5 5t174 6.5t174 6.5t148.5 6t96.5 5h-471q-2 0 -9.5 12t-11.5 19q-2 4 1 10t3 10h37v41h-29q0 10 -5 21.5 t-7 20.5t6 15t35 4q-4 0 -15.5 1t-15.5 1q-29 0 -43 -13t-20 -33.5t-6 -47.5q0 -25 -2 -51q-18 -2 -65.5 -6t-99.5 -7t-98.5 -5t-64.5 -2q-72 -2 -177.5 -1t-213 2t-204.5 3t-153.5 3t-60.5 1v135h-41v-123h-82q0 4 -7 10t-3 11q6 4 29.5 12t31.5 8q-35 -4 -46 2t-15 18.5 t-6 29t-15 32.5q-6 8 -18 11l-12 3v-157h-1170q0 6 -2 23.5t-3 38t-2 37.5t-1 23q0 4 8 12.5t13 8.5h-103zM5954 946q0 39 3 70t15 51t36.5 30.5t67.5 10.5q61 0 113.5 -11.5t92.5 -37t62.5 -69.5t22.5 -109q0 -66 -21.5 -106t-59.5 -62.5t-89 -30.5t-108 -8h-23 q-16 0 -33.5 1t-33.5 1h-23q-6 43 -11 75.5t-7 63.5t-3 61.5t-1 69.5zM9007 774q23 0 44.5 5t37.5 20q14 14 52 53t80 81l80 80t54 52q12 12 52 34.5t82 45t76 41t36 22.5l-20 21q-2 0 -30 1t-44 1q-111 0 -206 -6t-212 -17q12 -29 36.5 -34t49.5 -8t43 -14t18 -50 q0 -6 -1 -20.5t-3 -16.5l-225 -266v-25z" />
<glyph unicode="A" horiz-adv-x="1759" d="M68 0h512v20q-29 6 -61 12.5t-60.5 18.5t-47 33.5t-18.5 58.5q0 18 7.5 53t21.5 69t33.5 58.5t42.5 24.5h553q12 0 33.5 -32.5t42 -74.5t35 -83t14.5 -58q0 -31 -17.5 -46t-43 -21t-54.5 -8t-51 -5v-20h676v20q-37 6 -76 34t-78 68t-75 87t-62.5 93t-43 88t-16.5 71 q0 4 1 7l1 3q4 4 20.5 12.5t20.5 8.5l-245 450q-8 14 -23.5 38t-17.5 24h-164v-52h-205l-21 -30q-14 -27 -44.5 -79t-68.5 -119t-80 -140.5t-81 -140t-69.5 -120t-45.5 -77.5q-41 -70 -102 -136.5t-143 -89.5v-20zM539 451q10 18 35.5 64t55 98.5t56.5 99.5t37 65 q8 14 25.5 41t35.5 41l226 -409h-471z" />
<glyph unicode="B" horiz-adv-x="1175" d="M78 -8h63q45 0 99.5 1t115 2t114.5 2t97 2t64 1q76 2 159.5 24.5t154.5 65.5t116 107.5t45 150.5q0 82 -35 139.5t-91 94t-127 58.5t-140 36l164 61v492q0 2 -8.5 9t-12.5 11q-37 25 -90 37t-109.5 17.5t-107.5 6.5t-82 1h-29q-23 0 -53.5 1t-62.5 1h-50h-39 q-27 0 -58.5 -1t-59.5 -1h-37v-1319zM242 123v518q86 0 164.5 -9t138 -39t94.5 -88.5t35 -156.5q0 -137 -81 -213t-218 -76h-39t-43.5 5.5t-35.5 18.5t-15 40zM242 711v538h41q70 0 139.5 -11t125.5 -42t91 -83t35 -134q0 -92 -40 -146.5t-102.5 -81t-139.5 -33.5t-150 -7z " />
<glyph unicode="C" horiz-adv-x="1499" d="M78 809h112v-645q0 -2 12.5 -9.5t18.5 -11.5q80 -41 148.5 -69.5t138.5 -45t143.5 -23.5t163.5 -7q31 0 88.5 3t126 11t140 23.5t130 41t96.5 62.5t38 86q0 4 -2 20.5t-2 20.5q-4 -2 -20.5 -9t-20.5 -11q-4 -2 -15.5 -11.5t-26 -20.5t-26.5 -19.5t-14 -10.5 q-98 -57 -191.5 -90t-208.5 -33q-176 0 -278.5 63.5t-154.5 169t-67.5 240t-21.5 275.5h-102q18 102 63 184t112.5 139.5t154.5 88t192 30.5q88 0 161.5 -27.5t133 -67.5t104.5 -88t79 -88t54.5 -67.5t30.5 -27.5v458q-25 0 -40 -15t-29.5 -32.5t-33 -33t-51.5 -15.5 q-63 0 -124.5 13.5t-124 30t-125 29.5t-127.5 13q-127 0 -264.5 -28.5t-247.5 -96.5q-14 -8 -35 -21t-40.5 -26.5t-33.5 -24.5l-14 -10v-317z" />
<glyph unicode="D" horiz-adv-x="1347" d="M68 0h860q2 0 21.5 5t45 11.5t53 13.5t44.5 11l61 20q14 6 34.5 16.5t40 19.5t34.5 17l14 9v1003q0 20 -41 41t-94.5 38.5t-103.5 28.5t-68 15q-14 2 -37 6.5t-46.5 7.5t-41 5t-19.5 2h-757v-21q16 -2 51 -7t68.5 -15t59 -29.5t25.5 -50.5v-1045q0 -29 -25.5 -46 t-59 -27.5t-67.5 -16.5t-52 -12zM559 102v1112q297 0 426 -146t129 -443q0 -104 -21.5 -208t-71.5 -188t-134 -136t-207 -52q-10 0 -30.5 3t-40 11t-35 19.5t-15.5 27.5z" />
<glyph unicode="E" horiz-adv-x="1529" d="M63 -82h400v92h932q8 0 20 49.5t22.5 115t17.5 128t7 90.5q-20 0 -50 -31.5t-63.5 -74.5t-69.5 -84t-69 -60q-92 -53 -194.5 -68.5t-206.5 -15.5q-45 0 -83 3.5t-66.5 16.5t-45 43t-18.5 83q0 23 1 80t2 121.5t3 123t2 80.5q76 0 129 -17.5t92 -52t67 -88t52 -124.5h41 v655h-41q-25 -92 -48.5 -147.5t-58 -83t-92 -35.5t-149.5 -8v491q23 0 78 2t117.5 3t117 2t76.5 1q68 -4 118 -27.5t89 -62.5t68.5 -90t52.5 -106h41v368h-891v-92h-400v-31q6 0 23.5 -3t38 -6t38 -6t24 -5t19.5 -9.5t27.5 -16.5t24.5 -18t10 -18v-1085q0 -2 -8 -9t-12 -11 q-18 -12 -44 -21.5t-53.5 -18t-51 -14.5t-36.5 -8z" />
<glyph unicode="F" horiz-adv-x="1034" d="M68 0h389q-8 2 -28.5 8t-44.5 12.5t-43 12.5t-28 8q-2 0 -15 6t-29.5 16.5t-16.5 18.5v504q94 0 153.5 -20.5t95.5 -52.5t54 -68.5t30.5 -68.5t24 -52.5t31.5 -20.5v688q-16 0 -35.5 -42t-48.5 -95t-67.5 -100t-94.5 -58q-8 -2 -28.5 0t-43 5.5t-43 5.5t-28.5 2v471 q52 0 122 4q46 3 95 3q24 0 48 -1q73 -2 143.5 -14.5t128 -43t95.5 -85t44 -142.5h41v369h-901v-1270z" />
<glyph unicode="G" horiz-adv-x="1398" d="M68 184q0 -20 26.5 -40.5t67.5 -40t89 -38t94 -32t82 -22.5t50 -11h51t77 -1t77 -1h51q86 0 189 -1h8q98 0 182 23q4 2 12.5 9.5t8.5 11.5v491h-369v-20q2 0 30.5 -5t62.5 -13.5t62.5 -19.5t28.5 -23v-369q0 -2 -23.5 -9t-37.5 -12q-12 -2 -34 -6t-45.5 -7t-41.5 -5 t-23 -2q-135 0 -225 49t-145.5 132t-79 189.5t-23.5 223.5q0 166 32 284.5t104.5 193.5t190.5 109.5t290 34.5v33q0 4 -32 11.5t-50 9.5h-17q-12 0 -29.5 1t-35.5 1h-29q-23 0 -78 -7.5t-124.5 -19.5t-144.5 -30.5t-137.5 -42t-102 -50t-39.5 -57.5v-922zM901 1231 q0 -37 31 -65.5t71.5 -52t82.5 -44t67 -45.5q10 -10 32.5 -41t45 -64.5t42 -63.5t23.5 -36h41v443q-27 0 -44 -15.5t-31.5 -33t-31 -33t-42.5 -15.5q-37 0 -73 10.5t-71.5 22.5t-70.5 22.5t-72 10.5z" />
<glyph unicode="H" horiz-adv-x="1468" d="M55 1393q45 -10 97.5 -23.5t87.5 -48.5h-144v-31q4 0 32 -6t59.5 -14t57 -18.5t25.5 -22.5v-410l29 -4l2 -692q0 -33 -26.5 -52.5t-60.5 -30.5t-69 -14.5t-49 -5.5v-20h461v614h707v-491q0 -33 -27 -52.5t-60.5 -30.5t-68.5 -14t-49 -6v-20h348v1311h-348v-21 q16 -4 51 -10t68.5 -17.5t59.5 -30t26 -44.5v-471h-697v491q0 4 15.5 20.5t25.5 20.5q8 2 27.5 9.5t43 13.5t44 11t29.5 7v31h-359v92h-338v-20z" />
<glyph unicode="I" horiz-adv-x="716" d="M20 0h676v20q-6 0 -23.5 3.5t-38 6.5t-37.5 6t-23.5 5t-19.5 8t-27.5 15.5t-24.5 19.5t-10 18v1086q0 31 28.5 47t65.5 23.5t69.5 9.5t40.5 2v24q-338 0 -676 -24v-21q10 1 21 1q22 0 46 -3q36 -4 66.5 -16t51 -38t20.5 -67v-962q0 -47 -18.5 -74t-47 -40t-65.5 -18.5 t-74 -11.5v-20z" />
<glyph unicode="J" horiz-adv-x="1146" d="M68 61q68 -41 143.5 -52t153.5 -11t153.5 11t143.5 52q0 88 14 122t36.5 45.5t50.5 14.5t52.5 28.5t45 88t26.5 193.5q2 31 4 95.5t4 144t4 170t4 170t3 144t1 95.5q10 23 35 38t54.5 24.5t56 13.5t39.5 6v21h-420v-134h-420v-30q14 -2 51 -7.5t76 -19.5t68.5 -36.5 t29.5 -59.5v-983q0 -18 -7 -43t-20.5 -47.5t-32 -38t-42.5 -15.5h-307z" />
<glyph unicode="K" horiz-adv-x="1783" d="M72 -23v-20h379v92h276v31q-12 0 -35.5 5t-47 16.5t-42 26.5t-18.5 34v471q0 16 16 19t27 3q4 0 11 -1l7 -1l389 -409q27 -29 35 -45.5t8 -48.5q0 -29 -18.5 -38.5t-41 -13.5t-41 -13t-18.5 -36h363l61 -51h328v20q-23 8 -50.5 18.5t-56 23t-54 27.5t-44.5 34l-655 676 l20 20q4 4 36 25.5t80 54.5t108.5 74t121 80t114.5 74.5t93 60.5q12 8 49 20.5t77 27.5t72 33.5t32 41.5h-606q0 -29 23.5 -37t53 -13.5t53 -16.5t23.5 -48q0 -41 -17.5 -61.5t-66.5 -49.5q-25 -16 -85 -57t-128.5 -86t-130 -86t-86.5 -57q-20 -14 -50 -24.5t-52 -16.5v512 q0 27 23.5 37t52 16t52 15.5t23.5 33.5h-284v-92h-379v-31q16 -4 51 -10t68.5 -17.5t59 -30t25.5 -44.5v-1086q0 -8 -10 -18t-24.5 -19.5t-27.5 -15.5t-19.5 -8t-23.5 -5t-37.5 -6t-38 -6.5t-23.5 -3.5z" />
<glyph unicode="L" horiz-adv-x="1269" d="M20 -2h68q51 0 106.5 1t104.5 1h70q33 0 102.5 2t156.5 4t182 4t182 4t156 3t101 3v72h-737q-8 0 -19.5 8.5t-20.5 19.5t-15 23.5t-6 20.5v1044q0 33 29.5 52.5t66.5 31t69.5 14.5t38.5 5v24q-319 0 -635 -24v-21q8 -2 29 -7t44.5 -11t43 -13.5t27.5 -9.5 q10 -4 25.5 -20.5t15.5 -20.5v-1106q0 -23 -26.5 -37t-59.5 -24t-63 -15.5t-36 -5.5v-22z" />
<glyph unicode="M" horiz-adv-x="1822" d="M72 -84v-20h307l41 1187l594 -1065l3 -1t5 -1q4 0 8 1l4 1q4 2 11.5 9.5t9.5 11.5l553 1024v-942q0 -8 -10.5 -18.5t-24.5 -19.5t-27.5 -15.5t-19.5 -8.5t-23.5 -5t-38 -6t-38 -6t-23.5 -3v-21h348v1188h-174l-444 -827l-463 838h-189q-10 0 -23.5 19t-25.5 45 t-21.5 51.5t-11.5 37.5h-307v-20q8 0 28.5 -2t44 -5.5t43 -7.5t28.5 -6q4 -2 12 -14t8 -17h-184v-30q4 0 36.5 -1t69.5 -9.5t67.5 -24.5t30.5 -47v-1147q0 -33 -23.5 -54.5t-57 -36t-68.5 -21.5z" />
<glyph unicode="N" horiz-adv-x="1619" d="M59 1413q8 0 29 -3t44.5 -6t43 -6t27.5 -5l19 -1q20 -1 43.5 -5.5t42 -15.5t18.5 -30h-170l1 -12q1 -12 5 -18q6 -14 20.5 -20.5t30.5 -9.5t30.5 -5t20.5 -6q12 -8 29.5 -23.5t34 -32t28 -30t11.5 -17.5v-983q0 -41 -21.5 -65.5t-52.5 -40t-67 -23.5t-64 -14v-21l344 11 l4 993l1024 -1024h20v1331h-286v-20q37 -6 73.5 -19.5t66.5 -36t47.5 -54.5t17.5 -75v-573l-779 788h-194v93h-441v-21z" />
<glyph unicode="O" horiz-adv-x="1337" d="M66 666q4 -131 19 -198t34.5 -97.5t42 -41t42 -26.5t33 -54t15.5 -126q0 -23 31.5 -40t80 -30.5t105.5 -24t111.5 -16.5t95.5 -9t57 -3q92 0 192.5 10t186.5 51q18 8 46 21.5t54.5 27t45.5 23.5l18 10v1065q0 16 -25.5 34t-64.5 34t-86 29.5t-90 23.5t-77 16.5t-46 6.5 h-23q-18 0 -42.5 1t-49.5 1h-39q-129 0 -250 -18.5t-231 -86.5q-2 -84 -16.5 -123t-34 -59t-42 -35.5t-43 -52.5t-34.5 -108.5t-16 -204.5zM332 676q0 102 18.5 211.5t64.5 200t126 147.5t202 57q125 0 203 -56t119 -144t55.5 -196t14.5 -210q0 -100 -14.5 -210.5 t-57.5 -203t-122 -153t-208 -60.5q-121 0 -198.5 59.5t-122.5 150.5t-62.5 200t-17.5 207z" />
<glyph unicode="P" horiz-adv-x="858" d="M63 0h369v20q-39 6 -76 15.5t-65.5 27t-46 47t-17.5 74.5v410q57 2 129 3t147 6t147.5 17.5t129.5 34.5q4 2 12.5 9.5t8.5 11.5v594q0 4 -8.5 10t-12.5 10q-49 25 -108.5 34t-121.5 11q-31 1 -61.5 1t-60.5 -1q-59 -2 -109 -2h-51t-76.5 -1t-76.5 -1h-52v-1331zM227 668 v602h23q16 0 33.5 1t33.5 1h23q154 0 236.5 -69.5t82.5 -229.5q0 -104 -32.5 -164.5t-91 -91.5t-137.5 -40t-171 -9z" />
<glyph unicode="Q" horiz-adv-x="1454" d="M18 702q0 -109 16.5 -168t47.5 -105t73 -94t91 -134q2 -4 5 -18.5t5 -33t5 -34t5 -17.5q20 -29 53 -39t69 -15t70 -14.5t54 -33.5l82 -102q55 -63 123.5 -103.5t144.5 -64t157 -31.5t159 -8h39q27 0 51 1t43 1h20q12 0 29.5 3t34 6t28 6t11.5 5v41q-84 4 -150.5 12.5 t-124 30t-110 59t-107.5 103.5q-4 4 -12 20.5t-8 20.5q0 10 35.5 26.5t84 33t96.5 33.5t70 30q14 8 38 23.5t24 17.5v1024q0 2 -8.5 9t-12.5 11q-135 76 -262 111t-280 35q-29 0 -94.5 -4.5t-137.5 -15.5t-132 -31.5t-77 -53.5q0 -2 -3 -11t-6 -19.5t-6 -19.5t-5 -11 q-45 -63 -86 -115.5t-73 -106t-50.5 -115t-18.5 -145.5zM305 672q0 100 16.5 208.5t60.5 198.5t122 149.5t203 59.5q129 0 207.5 -60.5t121.5 -152.5t57.5 -203.5t14.5 -212.5q0 -98 -16.5 -204.5t-61.5 -195.5t-123 -146.5t-200 -57.5q-123 0 -202 59.5t-123 149.5 t-60.5 200t-16.5 208z" />
<glyph unicode="R" horiz-adv-x="1429" d="M63 0h349v20q-27 2 -63 8.5t-67.5 19.5t-53 35.5t-21.5 59.5v430h266l553 -573h328v20q-39 6 -70 21.5t-57.5 39t-50 50.5t-48.5 53l-368 410q6 12 23.5 18t35 10.5t30.5 11.5t13 21v574q0 4 -15.5 10t-25.5 10q-10 2 -28.5 6.5t-38 7.5t-36 5t-20.5 2h-635v-1270z M207 649v580q8 0 35.5 1t36.5 1q84 0 160.5 -9.5t135 -40t93 -88t34.5 -151.5q0 -111 -44 -170t-114.5 -87t-159.5 -32t-177 -4z" />
<glyph unicode="S" horiz-adv-x="1216" d="M57 913q0 -94 44 -165.5t114 -125t154 -90t161 -63.5l4 -1q5 -1 9 -1q2 0 5 1l3 1q10 14 11 26.5t3 20.5t6 13.5t21 5.5q4 0 11 -1.5t9 -3.5q45 -18 95.5 -38.5t93.5 -50t71.5 -70.5t28.5 -97q0 -61 -32.5 -100t-83 -62.5t-107.5 -34.5t-107 -18q0 -2 -1 -5t-1 -5 q0 -23 17.5 -27t34.5 -4q90 0 187 24t177 72t131 123.5t51 180.5q0 88 -37.5 152.5t-97 112.5t-133.5 85t-143 70q-10 4 -33 14t-49.5 20.5t-52 18.5t-41.5 8h-9q-2 -2 -5 -11t-6 -19.5t-5 -19.5t-4 -11l-3 -1t-5 -1q-37 0 -76 18t-70.5 48t-52 67t-20.5 73q0 45 21.5 76 t54 52.5t73.5 35t78 21.5v47q-78 0 -165 -21.5t-159.5 -66.5t-121 -112.5t-48.5 -160.5zM59 -90q25 0 43.5 14.5t38 30.5t42 30.5t53.5 14.5q41 0 79.5 -11.5t76.5 -25.5t77 -25.5t82 -11.5v52q-86 8 -156.5 45.5t-127 93t-98.5 126t-69 144.5h-41v-477zM571 1329 q164 -33 285 -120t186 -248h21v417q-20 0 -31.5 -14t-21 -31.5t-22.5 -32t-38 -14.5q-49 0 -95 13.5t-92 31t-94 30.5t-98 13v-45z" />
<glyph unicode="T" horiz-adv-x="1472" d="M61 809v338h615l20 51h717v-332q-29 0 -49.5 26t-37.5 60.5t-34.5 69.5t-42.5 53q-41 29 -83 41t-85 16q-25 2 -51 2q-18 0 -37 -2q-45 -2 -92 -2l-2 -991q0 -10 10.5 -19t24.5 -18.5t27.5 -15.5t19.5 -8t23.5 -5t38 -6.5t38 -6.5t23.5 -3v-30h-420v-90h-297v20 q27 2 62.5 7t67.5 17.5t53.5 35t21.5 61.5l2 991q-86 0 -163 -4t-139.5 -27.5t-110.5 -77t-79 -151.5h-41z" />
<glyph unicode="U" horiz-adv-x="1638" d="M78 1270q31 -2 52.5 -4t38.5 -6.5t33.5 -11.5t39.5 -19q6 -4 18 -13l12 -8v-819q0 -45 26 -111.5t68 -128t95 -105.5t108 -44h277v61q76 16 166 44t166.5 76t128 118t51.5 172v799q0 31 29.5 50t67.5 30.5t73 16.5t45 5v21h-512v-21q6 0 35.5 -5t62.5 -15.5t59.5 -25.5 t26.5 -36v-860q0 -72 -41 -126t-101.5 -90t-130.5 -54q-63 -17 -115 -17h-11v-49q-2 0 -21.5 -4t-47 -7t-44.5 -1q-37 8 -72.5 32.5t-62.5 58.5t-43 75t-16 80v962h-461v-20z" />
<glyph unicode="V" horiz-adv-x="1861" d="M57 1311q0 -10 11 -21q31 -20 56.5 -30.5t47 -22.5t40.5 -32.5t40 -57.5l594 -1127q10 -16 17 -19t24 -3q16 0 23.5 3t17.5 19l338 635h-92l-164 -286q-2 -4 -9.5 -11.5t-11.5 -9.5l-20 21l-369 716q-2 2 -3 17.5t-1 21.5q0 31 17.5 47.5t42 23.5t54 9t54.5 4v31h-451 l-61 72h-195zM1294 676q31 0 49.5 1t30.5 6t21.5 17.5t23.5 36.5q12 18 41 68.5t61.5 106t61.5 104.5t41 69q31 47 83 77t101 46v21h-512v-21q25 -4 56.5 -9t61.5 -17.5t50.5 -33t20.5 -52.5q0 -6 -2 -17.5t-2 -13.5l-185 -369z" />
<glyph unicode="W" horiz-adv-x="2365" d="M72 1309q12 -4 29.5 -12.5t36 -18.5t34.5 -23.5t23 -27.5l614 -1209l6 -1t10 -1q16 0 26.5 3.5t18.5 19.5l355 686l383 -809q8 -16 16 -19t25 -3q14 0 23 3t18 19l491 1065q4 10 22.5 22.5t38 26.5t35 27.5t15.5 25.5h-398v-20q55 0 100.5 -20.5t45.5 -77.5 q0 -35 -3 -53.5t-20 -53.5q-29 -63 -72.5 -159.5t-86.5 -188.5t-74 -157.5t-33 -67.5l-20 -21q-12 25 -36 76t-54.5 115.5t-64.5 136.5t-63.5 136.5t-54 115.5t-35.5 76q-4 6 -11 29.5t-9 31.5v12q0 23 18.5 36t43 21.5t48 10.5t33.5 2v31h-368l-62 112h-266v-20 q39 -4 68.5 -11.5t54 -20.5t44 -35.5t38.5 -55.5q12 -23 29.5 -56.5t34 -66.5t27.5 -56.5t11 -25.5v-41l-239 -481l-334 665q-16 33 -19.5 52.5t-3.5 52.5q0 49 25.5 61.5t79.5 18.5v31h-349l-61 112h-184v-20z" />
<glyph unicode="X" horiz-adv-x="1822" d="M72 0h614v20q-12 2 -46 7.5t-69.5 14.5t-62.5 26.5t-27 44.5v10q2 6 10.5 21.5t10.5 19.5l327 328q8 -6 32 -30t30 -32q16 -18 50 -58t70 -82t65.5 -78t39.5 -48q14 -16 18.5 -29.5t4.5 -32.5q0 -29 -21.5 -40t-46 -18t-46 -15.5t-21.5 -28.5h686v20q-37 12 -65 25.5 t-51.5 30t-44 38t-44.5 50.5q-16 18 -51 59t-79 93.5t-93.5 110.5t-94.5 110.5t-80.5 95.5t-52.5 63q-10 10 -25.5 34t-15.5 28q0 2 6.5 11t13.5 19.5l13 19.5t8 11l1 4t1 6t-1 7l-1 4l-266 327l-1 7q-1 8 -1 12q0 25 16.5 38t40 18t48 6t40.5 1v21h-686q0 -16 14.5 -24.5 t33 -13.5l37 -10t28.5 -14q92 -78 176 -182t152 -197h-82v-30l184 -226q-80 -84 -156.5 -167.5t-159.5 -158.5t-176 -134.5t-204 -92.5v-20zM1075 840q6 -2 25.5 -3t25.5 -1q31 0 47.5 3t30 12t29.5 26.5t47 44.5q16 14 57 52t86 80t86 79.5t58 54.5q41 29 88 43t96 18v21 h-573v-21q18 -2 46.5 -6t54.5 -13t44 -26.5t18 -46.5v-10q-14 -43 -49 -89t-74.5 -87t-78.5 -76t-64 -55z" />
<glyph unicode="Y" horiz-adv-x="1736" d="M68 1290q7 1 14 1q25 0 50 -12q30 -15 56.5 -37.5t48 -49.5t35.5 -45q14 -16 35 -46t40.5 -59.5t33.5 -52t14 -26.5v-31h-102l266 -440v-410q0 -6 -15.5 -21.5t-25.5 -19.5q-8 -2 -27.5 -6t-43 -7t-44 -5.5t-28.5 -2.5v-20h737v20q-8 0 -41 2.5t-69.5 9.5t-65.5 23.5 t-29 46.5v430l267 390q-4 0 -20.5 2t-20.5 2q-53 0 -91 -39t-70 -90.5t-61.5 -103.5t-64.5 -79q-35 25 -68 62t-60.5 80t-47 88t-29.5 88h102q-12 35 -35.5 72.5t-47 76.5t-42 76t-18.5 72q0 18 18.5 30.5t44 19.5t49 9t31.5 2v21h-675v-21zM1194 1290q20 -4 46 -9 t47.5 -14.5t36.5 -25.5t15 -43q0 -41 -20.5 -70.5t-45 -57.5t-45 -56.5t-20.5 -65.5q25 -9 45 -9q27 0 46 15q34 27 67 76t76 110.5t121 108.5q12 6 30.5 11.5t37 10.5t31.5 14t13 26h-481v-21z" />
<glyph unicode="Z" horiz-adv-x="1542" d="M63 72h183l-41 -72h1208q8 0 19.5 55.5t21.5 131t17.5 151.5t7.5 117q-16 0 -37 -28t-47.5 -69t-60.5 -90t-75.5 -90t-95 -68.5t-119.5 -27.5h-573q33 43 100.5 133t152.5 202.5t178 237.5t178 238t152.5 203t98.5 133q6 8 21.5 34.5t19.5 36.5h-160l-3 12q-3 13 -1 19 q2 4 9.5 20.5t11.5 20.5h-1004l-5 -38q-5 -38 -12 -90t-13.5 -107.5t-10.5 -92.5q0 -4 -1 -22t-1 -23q31 0 64 45.5t73.5 100.5t93 100t119.5 45h447z" />
<glyph unicode="&#xa0;" />
<glyph unicode="&#x2000;" horiz-adv-x="799" />
<glyph unicode="&#x2001;" horiz-adv-x="1599" />
<glyph unicode="&#x2002;" horiz-adv-x="799" />
<glyph unicode="&#x2003;" horiz-adv-x="1599" />
<glyph unicode="&#x2004;" horiz-adv-x="533" />
<glyph unicode="&#x2005;" horiz-adv-x="399" />
<glyph unicode="&#x2006;" horiz-adv-x="266" />
<glyph unicode="&#x2007;" horiz-adv-x="266" />
<glyph unicode="&#x2008;" horiz-adv-x="199" />
<glyph unicode="&#x2009;" horiz-adv-x="319" />
<glyph unicode="&#x200a;" horiz-adv-x="88" />
<glyph unicode="&#x202f;" horiz-adv-x="319" />
<glyph unicode="&#x205f;" horiz-adv-x="399" />
<glyph unicode="&#x25fc;" d="M0 0z" />
</font>
</defs>
</svg>
